<svg width="16" height="17" viewBox="0 0 16 17" fill="none" xmlns="http://www.w3.org/2000/svg">
<g clip-path="url(#clip0_301_254)">
<path d="M8 0.420898C5.829 0.420898 5.556 0.430898 4.703 0.468898C3.85 0.508898 3.269 0.642898 2.76 0.840898C2.22609 1.04172 1.74249 1.35672 1.343 1.7639C0.936076 2.16359 0.621107 2.64714 0.42 3.1809C0.222 3.6889 0.087 4.2709 0.048 5.1209C0.01 5.9759 0 6.2479 0 8.4219C0 10.5939 0.01 10.8659 0.048 11.7189C0.088 12.5709 0.222 13.1519 0.42 13.6609C0.625 14.1869 0.898 14.6329 1.343 15.0779C1.787 15.5229 2.233 15.7969 2.759 16.0009C3.269 16.1989 3.849 16.3339 4.701 16.3729C5.555 16.4109 5.827 16.4209 8 16.4209C10.173 16.4209 10.444 16.4109 11.298 16.3729C12.149 16.3329 12.732 16.1989 13.241 16.0009C13.7746 15.8 14.2578 15.485 14.657 15.0779C15.102 14.6329 15.375 14.1869 15.58 13.6609C15.777 13.1519 15.912 12.5709 15.952 11.7189C15.99 10.8659 16 10.5939 16 8.4209C16 6.2479 15.99 5.9759 15.952 5.1219C15.912 4.2709 15.777 3.6889 15.58 3.1809C15.3789 2.64712 15.0639 2.16357 14.657 1.7639C14.2576 1.35657 13.774 1.04154 13.24 0.840898C12.73 0.642898 12.148 0.507898 11.297 0.468898C10.443 0.430898 10.172 0.420898 7.998 0.420898H8.001H8ZM7.283 1.8629H8.001C10.137 1.8629 10.39 1.8699 11.233 1.9089C12.013 1.9439 12.437 2.0749 12.719 2.1839C13.092 2.3289 13.359 2.5029 13.639 2.7829C13.919 3.0629 14.092 3.3289 14.237 3.7029C14.347 3.9839 14.477 4.4079 14.512 5.1879C14.551 6.0309 14.559 6.2839 14.559 8.4189C14.559 10.5539 14.551 10.8079 14.512 11.6509C14.477 12.4309 14.346 12.8539 14.237 13.1359C14.1087 13.4833 13.904 13.7973 13.638 14.0549C13.358 14.3349 13.092 14.5079 12.718 14.6529C12.438 14.7629 12.014 14.8929 11.233 14.9289C10.39 14.9669 10.137 14.9759 8.001 14.9759C5.865 14.9759 5.611 14.9669 4.768 14.9289C3.988 14.8929 3.565 14.7629 3.283 14.6529C2.9355 14.5248 2.62113 14.3205 2.363 14.0549C2.09675 13.7969 1.89172 13.4826 1.763 13.1349C1.654 12.8539 1.523 12.4299 1.488 11.6499C1.45 10.8069 1.442 10.5539 1.442 8.4169C1.442 6.2809 1.45 6.0289 1.488 5.1859C1.524 4.4059 1.654 3.9819 1.764 3.6999C1.909 3.3269 2.083 3.0599 2.363 2.7799C2.643 2.4999 2.909 2.3269 3.283 2.1819C3.565 2.0719 3.988 1.9419 4.768 1.9059C5.506 1.8719 5.792 1.8619 7.283 1.8609V1.8629ZM12.271 3.1909C12.1449 3.1909 12.0201 3.21573 11.9036 3.26397C11.7872 3.31222 11.6813 3.38293 11.5922 3.47208C11.503 3.56122 11.4323 3.66705 11.3841 3.78352C11.3358 3.89999 11.311 4.02483 11.311 4.1509C11.311 4.27697 11.3358 4.4018 11.3841 4.51827C11.4323 4.63475 11.503 4.74058 11.5922 4.82972C11.6813 4.91887 11.7872 4.98958 11.9036 5.03782C12.0201 5.08607 12.1449 5.1109 12.271 5.1109C12.5256 5.1109 12.7698 5.00976 12.9498 4.82972C13.1299 4.64969 13.231 4.40551 13.231 4.1509C13.231 3.89629 13.1299 3.65211 12.9498 3.47208C12.7698 3.29204 12.5256 3.1909 12.271 3.1909ZM8.001 4.3129C7.45607 4.3044 6.91489 4.40438 6.40898 4.60704C5.90306 4.80969 5.44251 5.11097 5.05415 5.49332C4.66579 5.87567 4.35736 6.33147 4.14684 6.83416C3.93632 7.33685 3.8279 7.8764 3.8279 8.4214C3.8279 8.96639 3.93632 9.50595 4.14684 10.0086C4.35736 10.5113 4.66579 10.9671 5.05415 11.3495C5.44251 11.7318 5.90306 12.0331 6.40898 12.2358C6.91489 12.4384 7.45607 12.5384 8.001 12.5299C9.07954 12.5131 10.1082 12.0728 10.865 11.3041C11.6217 10.5355 12.0459 9.50007 12.0459 8.4214C12.0459 7.34273 11.6217 6.30731 10.865 5.53865C10.1082 4.76999 9.07954 4.32973 8.001 4.3129ZM8.001 5.7539C8.70833 5.7539 9.38669 6.03489 9.88685 6.53504C10.387 7.0352 10.668 7.71357 10.668 8.4209C10.668 9.12823 10.387 9.80659 9.88685 10.3068C9.38669 10.8069 8.70833 11.0879 8.001 11.0879C7.29367 11.0879 6.61531 10.8069 6.11515 10.3068C5.61499 9.80659 5.334 9.12823 5.334 8.4209C5.334 7.71357 5.61499 7.0352 6.11515 6.53504C6.61531 6.03489 7.29367 5.7539 8.001 5.7539Z" fill="#3D424D"/>
</g>
<defs>
<clipPath id="clip0_301_254">
<rect width="16" height="16" fill="white" transform="translate(0 0.420898)"/>
</clipPath>
</defs>
</svg>
