<svg width="16" height="17" viewBox="0 0 16 17" fill="none" xmlns="http://www.w3.org/2000/svg">
<path d="M3.2501 13.1709C3.1501 13.0709 3.1001 12.9542 3.1001 12.8209C3.1001 12.6876 3.1501 12.5709 3.2501 12.4709L10.8001 4.9209H6.66676C6.52232 4.9209 6.40299 4.87357 6.30876 4.7789C6.2141 4.68468 6.16676 4.56534 6.16676 4.4209C6.16676 4.27645 6.2141 4.15712 6.30876 4.0629C6.40299 3.96823 6.52232 3.9209 6.66676 3.9209H11.9001C12.0668 3.9209 12.2085 3.97912 12.3254 4.09557C12.4419 4.21245 12.5001 4.35423 12.5001 4.5209V9.75423C12.5001 9.89868 12.453 10.018 12.3588 10.1122C12.2641 10.2069 12.1445 10.2542 12.0001 10.2542C11.8557 10.2542 11.7361 10.2069 11.6414 10.1122C11.5472 10.018 11.5001 9.89868 11.5001 9.75423V5.6209L3.9501 13.1709C3.8501 13.2709 3.73343 13.3209 3.6001 13.3209C3.46676 13.3209 3.3501 13.2709 3.2501 13.1709Z" fill="#32327C"/>
</svg>
